# xmcd
#
# Track frame offsets: 
#        150
#        19337
#        35955
#        51482
#        71354
#        90128
#        108223
#        126223
#        140795
#        156544
#        182386
#        198599
#        221562
#        243872
#        260804
#        273354
#        289600
#        310300
#        323029
#
# Disc length: 4607 seconds
#
# Revision: 0
# Processed by: cddbd v1.5.1PL2 Copyright (c) Steve Scherf et al.
# Submitted via: ExactAudioCopy v0.95b4
#
DISCID=2111fd13
DTITLE=Various Artist - Toronto Blues Society - 20 Years [CD2]
DYEAR=2005
DGENRE=Blues
TTITLE0=Chris Whiteley - Morning, Noon And Night
TTITLE1=Diana Braithwaite - Train
TTITLE2=The Jimmy Bowskill Band - The Truth
TTITLE3=Paul Reddick - Stone Of Indigo
TTITLE4=Danny Brooks - Soulsville
TTITLE5=Anderson and Sloski - Footwork
TTITLE6=Paul James Band - Lost In The Blues
TTITLE7=Curley Bridges - Rock 'n' Soul
TTITLE8=Brian Blain Blues - Is Hurtin'
TTITLE9=John And The Sisters - Only One
TTITLE10=Tyler Yarema - Why Did God Make Boogie Woogie?
TTITLE11=Madagascar Slim - Mbo
TTITLE12=Gary Kendall - Worn In
TTITLE13=Mark "Bird" Stafford - Bunnie Bop Boogie
TTITLE14=Michael Pickett - Bill's Song
TTITLE15=Johnny Max Band - Brown's Line
TTITLE16=Fathead Blue - Water
TTITLE17=David Wilcox - Play That Guitar Rag
TTITLE18=Colin Linden - I Give Up
EXTD=
EXTT0=
EXTT1=
EXTT2=
EXTT3=
EXTT4=
EXTT5=
EXTT6=
EXTT7=
EXTT8=
EXTT9=
EXTT10=
EXTT11=
EXTT12=
EXTT13=
EXTT14=
EXTT15=
EXTT16=
EXTT17=
EXTT18=
PLAYORDER=
